<svg width="200" height="80" viewBox="0 0 200 80" fill="none" xmlns="http://www.w3.org/2000/svg">
<path d="M40 26.6665L26.6667 39.9998M26.6667 39.9998L40 53.3332M26.6667 39.9998H53.3334M73.3334 39.9998C73.3334 58.4093 58.4095 73.3332 40 73.3332C21.5905 73.3332 6.66669 58.4093 6.66669 39.9998C6.66669 21.5903 21.5905 6.6665 40 6.6665C58.4095 6.6665 73.3334 21.5903 73.3334 39.9998Z" stroke="#4C4D58" stroke-width="4" stroke-linecap="round" stroke-linejoin="round"/>
<path d="M160 53.3332L173.333 39.9998M173.333 39.9998L160 26.6665M173.333 39.9998H146.667M193.333 39.9998C193.333 58.4093 178.409 73.3332 160 73.3332C141.59 73.3332 126.667 58.4093 126.667 39.9998C126.667 21.5903 141.59 6.6665 160 6.6665C178.409 6.6665 193.333 21.5903 193.333 39.9998Z" stroke="#4C4D58" stroke-width="4" stroke-linecap="round" stroke-linejoin="round"/>
</svg>
