<svg width="1216" height="116" viewBox="0 0 1216 116" fill="none" xmlns="http://www.w3.org/2000/svg">
<path d="M9.72 46L1.128 12.4H4.584L11.688 40.216L18.768 12.4H21.744L28.848 40.216L35.928 12.4H39.384L30.84 46H26.856L20.256 20.2L13.656 46H9.72ZM64.6361 31.144V46H61.2761V31.816C61.2761 30.504 60.9561 29.312 60.3161 28.24C59.6761 27.168 58.8201 26.312 57.7481 25.672C56.6761 25.032 55.4841 24.712 54.1721 24.712C52.8761 24.712 51.6841 25.032 50.5961 25.672C49.5241 26.312 48.6681 27.168 48.0281 28.24C47.3881 29.312 47.0681 30.504 47.0681 31.816V46H43.7081V10H47.0681V25.312C47.9161 24.096 49.0201 23.128 50.3801 22.408C51.7401 21.688 53.2201 21.328 54.8201 21.328C56.6281 21.328 58.2761 21.768 59.7641 22.648C61.2521 23.528 62.4361 24.712 63.3161 26.2C64.1961 27.688 64.6361 29.336 64.6361 31.144ZM88.7018 22H92.0618V46H88.7018L88.5818 41.536C87.7978 43.056 86.7018 44.288 85.2938 45.232C83.8858 46.16 82.2058 46.624 80.2538 46.624C78.4938 46.624 76.8458 46.296 75.3098 45.64C73.7738 44.968 72.4218 44.048 71.2538 42.88C70.0858 41.712 69.1738 40.36 68.5178 38.824C67.8618 37.288 67.5338 35.64 67.5338 33.88C67.5338 32.152 67.8538 30.528 68.4938 29.008C69.1498 27.488 70.0458 26.152 71.1818 25C72.3338 23.848 73.6618 22.952 75.1658 22.312C76.6858 21.656 78.3098 21.328 80.0378 21.328C82.0378 21.328 83.7818 21.808 85.2698 22.768C86.7578 23.712 87.9418 24.952 88.8218 26.488L88.7018 22ZM80.1818 43.36C81.8938 43.36 83.3658 42.944 84.5978 42.112C85.8298 41.264 86.7738 40.128 87.4298 38.704C88.1018 37.28 88.4378 35.712 88.4378 34C88.4378 32.24 88.1018 30.656 87.4298 29.248C86.7578 27.824 85.8058 26.696 84.5738 25.864C83.3418 25.032 81.8778 24.616 80.1818 24.616C78.4858 24.616 76.9338 25.04 75.5258 25.888C74.1338 26.72 73.0218 27.848 72.1898 29.272C71.3738 30.696 70.9658 32.272 70.9658 34C70.9658 35.744 71.3898 37.328 72.2378 38.752C73.0858 40.16 74.2058 41.28 75.5978 42.112C77.0058 42.944 78.5338 43.36 80.1818 43.36ZM109.128 25.36H103.392L103.368 46H100.008L100.032 25.36H95.6884V22H100.032L100.008 14.464H103.368L103.392 22H109.128V25.36ZM140.543 46.624C138.271 46.624 136.135 46.176 134.135 45.28C132.135 44.368 130.375 43.112 128.855 41.512C127.335 39.912 126.143 38.064 125.279 35.968C124.415 33.856 123.983 31.6 123.983 29.2C123.983 26.8 124.415 24.552 125.279 22.456C126.143 20.344 127.335 18.488 128.855 16.888C130.375 15.288 132.135 14.04 134.135 13.144C136.135 12.232 138.271 11.776 140.543 11.776C142.831 11.776 144.975 12.232 146.975 13.144C148.975 14.04 150.735 15.288 152.255 16.888C153.775 18.488 154.959 20.344 155.807 22.456C156.671 24.552 157.103 26.8 157.103 29.2C157.103 31.6 156.671 33.856 155.807 35.968C154.959 38.064 153.775 39.912 152.255 41.512C150.735 43.112 148.975 44.368 146.975 45.28C144.975 46.176 142.831 46.624 140.543 46.624ZM140.543 43.264C142.383 43.264 144.095 42.896 145.679 42.16C147.279 41.408 148.679 40.384 149.879 39.088C151.095 37.792 152.039 36.296 152.711 34.6C153.399 32.904 153.743 31.104 153.743 29.2C153.743 27.28 153.399 25.472 152.711 23.776C152.023 22.064 151.071 20.568 149.855 19.288C148.655 17.992 147.255 16.976 145.655 16.24C144.071 15.504 142.367 15.136 140.543 15.136C138.703 15.136 136.983 15.512 135.383 16.264C133.799 17 132.399 18.016 131.183 19.312C129.983 20.608 129.039 22.104 128.351 23.8C127.679 25.496 127.343 27.296 127.343 29.2C127.343 31.136 127.687 32.952 128.375 34.648C129.063 36.344 130.007 37.84 131.207 39.136C132.423 40.432 133.823 41.448 135.407 42.184C137.007 42.904 138.719 43.264 140.543 43.264ZM160.592 36.808V22H163.952V36.136C163.952 37.448 164.272 38.64 164.912 39.712C165.552 40.784 166.408 41.64 167.48 42.28C168.568 42.92 169.76 43.24 171.056 43.24C172.368 43.24 173.552 42.92 174.608 42.28C175.68 41.64 176.536 40.784 177.176 39.712C177.816 38.64 178.136 37.448 178.136 36.136V22H181.496L181.52 46H178.16L178.136 42.64C177.288 43.856 176.184 44.824 174.824 45.544C173.48 46.264 172.008 46.624 170.408 46.624C168.6 46.624 166.952 46.184 165.464 45.304C163.976 44.424 162.792 43.24 161.912 41.752C161.032 40.264 160.592 38.616 160.592 36.808ZM186.302 46V22H189.662V25.312C190.51 24.096 191.614 23.128 192.974 22.408C194.334 21.688 195.814 21.328 197.414 21.328C198.342 21.328 199.238 21.448 200.102 21.688L198.734 25.024C198.062 24.816 197.406 24.712 196.766 24.712C195.47 24.712 194.278 25.032 193.19 25.672C192.118 26.312 191.262 27.168 190.622 28.24C189.982 29.312 189.662 30.504 189.662 31.816V46H186.302ZM230.541 46.624C228.269 46.624 226.133 46.176 224.133 45.28C222.133 44.368 220.373 43.12 218.853 41.536C217.349 39.936 216.165 38.08 215.301 35.968C214.453 33.856 214.029 31.6 214.029 29.2C214.029 26.8 214.453 24.544 215.301 22.432C216.165 20.32 217.349 18.472 218.853 16.888C220.373 15.288 222.133 14.04 224.133 13.144C226.133 12.232 228.269 11.776 230.541 11.776C233.261 11.776 235.765 12.408 238.053 13.672C240.341 14.936 242.237 16.616 243.741 18.712L240.765 20.32C239.581 18.736 238.077 17.48 236.253 16.552C234.445 15.608 232.541 15.136 230.541 15.136C228.701 15.136 226.981 15.512 225.381 16.264C223.797 17 222.405 18.016 221.205 19.312C220.005 20.608 219.069 22.104 218.397 23.8C217.725 25.496 217.389 27.296 217.389 29.2C217.389 31.136 217.725 32.952 218.397 34.648C219.085 36.344 220.029 37.84 221.229 39.136C222.445 40.432 223.845 41.448 225.429 42.184C227.029 42.904 228.733 43.264 230.541 43.264C232.621 43.264 234.549 42.792 236.325 41.848C238.117 40.888 239.597 39.64 240.765 38.104L243.741 39.712C242.237 41.808 240.341 43.488 238.053 44.752C235.765 46 233.261 46.624 230.541 46.624ZM248.693 46V10H252.053V46H248.693ZM257.833 22H261.193V46H257.833V22ZM259.537 17.8C258.993 17.8 258.529 17.624 258.145 17.272C257.777 16.904 257.593 16.448 257.593 15.904C257.593 15.36 257.777 14.912 258.145 14.56C258.529 14.192 258.993 14.008 259.537 14.008C260.065 14.008 260.513 14.192 260.881 14.56C261.265 14.912 261.457 15.36 261.457 15.904C261.457 16.448 261.273 16.904 260.905 17.272C260.537 17.624 260.081 17.8 259.537 17.8ZM277.299 46.624C275.091 46.624 273.075 46.056 271.251 44.92C269.443 43.784 267.995 42.264 266.907 40.36C265.835 38.44 265.299 36.32 265.299 34C265.299 32.24 265.611 30.6 266.235 29.08C266.859 27.544 267.715 26.2 268.803 25.048C269.907 23.88 271.187 22.968 272.643 22.312C274.099 21.656 275.651 21.328 277.299 21.328C279.075 21.328 280.707 21.68 282.195 22.384C283.699 23.088 284.987 24.072 286.059 25.336C287.147 26.6 287.963 28.08 288.507 29.776C289.067 31.472 289.299 33.304 289.203 35.272H268.851C269.043 36.792 269.523 38.152 270.291 39.352C271.075 40.552 272.067 41.504 273.267 42.208C274.483 42.896 275.827 43.248 277.299 43.264C278.899 43.264 280.339 42.848 281.619 42.016C282.915 41.184 283.955 40.04 284.739 38.584L288.147 39.376C287.187 41.504 285.739 43.248 283.803 44.608C281.867 45.952 279.699 46.624 277.299 46.624ZM268.755 32.56H285.819C285.707 31.072 285.251 29.712 284.451 28.48C283.667 27.232 282.651 26.24 281.403 25.504C280.155 24.752 278.787 24.376 277.299 24.376C275.811 24.376 274.451 24.744 273.219 25.48C271.987 26.2 270.979 27.184 270.195 28.432C269.411 29.664 268.931 31.04 268.755 32.56ZM314.246 31.144V46H310.886V31.816C310.886 30.504 310.566 29.312 309.926 28.24C309.286 27.168 308.43 26.312 307.358 25.672C306.286 25.032 305.094 24.712 303.782 24.712C302.486 24.712 301.294 25.032 300.206 25.672C299.134 26.312 298.278 27.168 297.638 28.24C296.998 29.312 296.678 30.504 296.678 31.816V46H293.318V22H296.678V25.312C297.526 24.096 298.63 23.128 299.99 22.408C301.35 21.688 302.83 21.328 304.43 21.328C306.238 21.328 307.886 21.768 309.374 22.648C310.862 23.528 312.046 24.712 312.926 26.2C313.806 27.688 314.246 29.336 314.246 31.144ZM331.316 25.36H325.58L325.556 46H322.196L322.22 25.36H317.876V22H322.22L322.196 14.464H325.556L325.58 22H331.316V25.36ZM342.827 46.456C341.515 46.424 340.235 46.184 338.987 45.736C337.739 45.288 336.651 44.68 335.723 43.912C334.795 43.144 334.131 42.272 333.731 41.296L336.635 40.048C336.891 40.672 337.363 41.248 338.051 41.776C338.755 42.288 339.555 42.704 340.451 43.024C341.347 43.328 342.235 43.48 343.115 43.48C344.091 43.48 345.003 43.32 345.851 43C346.699 42.68 347.387 42.224 347.915 41.632C348.459 41.024 348.731 40.312 348.731 39.496C348.731 38.616 348.443 37.928 347.867 37.432C347.291 36.92 346.563 36.52 345.683 36.232C344.803 35.928 343.899 35.64 342.971 35.368C341.275 34.904 339.779 34.392 338.483 33.832C337.187 33.272 336.171 32.56 335.435 31.696C334.715 30.816 334.355 29.688 334.355 28.312C334.355 26.856 334.763 25.6 335.579 24.544C336.411 23.472 337.491 22.648 338.819 22.072C340.163 21.48 341.595 21.184 343.115 21.184C345.067 21.184 346.843 21.608 348.443 22.456C350.059 23.304 351.227 24.432 351.947 25.84L349.235 27.448C348.947 26.792 348.491 26.224 347.867 25.744C347.243 25.264 346.531 24.888 345.731 24.616C344.947 24.344 344.147 24.2 343.331 24.184C342.307 24.168 341.355 24.32 340.475 24.64C339.595 24.944 338.883 25.4 338.339 26.008C337.811 26.616 337.547 27.36 337.547 28.24C337.547 29.12 337.811 29.792 338.339 30.256C338.867 30.704 339.579 31.072 340.475 31.36C341.387 31.632 342.411 31.952 343.547 32.32C345.003 32.784 346.371 33.312 347.651 33.904C348.931 34.496 349.963 35.232 350.747 36.112C351.531 36.992 351.915 38.104 351.899 39.448C351.899 40.888 351.467 42.144 350.603 43.216C349.739 44.288 348.619 45.112 347.243 45.688C345.867 46.248 344.395 46.504 342.827 46.456ZM14.616 104.624C12.824 104.624 11.088 104.344 9.408 103.784C7.744 103.224 6.288 102.424 5.04 101.384C3.792 100.344 2.912 99.104 2.4 97.664L5.544 96.488C5.896 97.48 6.536 98.336 7.464 99.056C8.408 99.76 9.504 100.304 10.752 100.688C12.016 101.072 13.304 101.264 14.616 101.264C16.152 101.264 17.584 101.008 18.912 100.496C20.24 99.984 21.312 99.272 22.128 98.36C22.944 97.432 23.352 96.344 23.352 95.096C23.352 93.832 22.928 92.792 22.08 91.976C21.232 91.16 20.136 90.52 18.792 90.056C17.464 89.576 16.072 89.208 14.616 88.952C12.328 88.552 10.272 88.008 8.448 87.32C6.64 86.632 5.208 85.664 4.152 84.416C3.096 83.152 2.568 81.488 2.568 79.424C2.568 77.488 3.128 75.808 4.248 74.384C5.368 72.96 6.84 71.856 8.664 71.072C10.504 70.288 12.488 69.896 14.616 69.896C16.36 69.896 18.064 70.168 19.728 70.712C21.392 71.256 22.856 72.048 24.12 73.088C25.4 74.128 26.32 75.4 26.88 76.904L23.688 78.056C23.336 77.048 22.688 76.192 21.744 75.488C20.816 74.768 19.728 74.224 18.48 73.856C17.232 73.472 15.944 73.28 14.616 73.28C13.096 73.264 11.672 73.52 10.344 74.048C9.032 74.56 7.968 75.28 7.152 76.208C6.336 77.12 5.928 78.192 5.928 79.424C5.928 80.864 6.304 81.976 7.056 82.76C7.824 83.528 8.864 84.104 10.176 84.488C11.488 84.872 12.968 85.216 14.616 85.52C16.76 85.888 18.752 86.464 20.592 87.248C22.432 88.016 23.912 89.048 25.032 90.344C26.152 91.624 26.712 93.208 26.712 95.096C26.712 97.016 26.152 98.696 25.032 100.136C23.912 101.56 22.432 102.664 20.592 103.448C18.768 104.232 16.776 104.624 14.616 104.624ZM51.5768 80H54.9368V104H51.5768L51.4568 99.536C50.6728 101.056 49.5768 102.288 48.1688 103.232C46.7608 104.16 45.0808 104.624 43.1288 104.624C41.3688 104.624 39.7208 104.296 38.1848 103.64C36.6488 102.968 35.2968 102.048 34.1288 100.88C32.9608 99.712 32.0488 98.36 31.3928 96.824C30.7368 95.288 30.4088 93.64 30.4088 91.88C30.4088 90.152 30.7288 88.528 31.3688 87.008C32.0248 85.488 32.9208 84.152 34.0568 83C35.2088 81.848 36.5368 80.952 38.0408 80.312C39.5608 79.656 41.1848 79.328 42.9128 79.328C44.9128 79.328 46.6568 79.808 48.1448 80.768C49.6328 81.712 50.8168 82.952 51.6968 84.488L51.5768 80ZM43.0568 101.36C44.7688 101.36 46.2408 100.944 47.4728 100.112C48.7048 99.264 49.6488 98.128 50.3048 96.704C50.9768 95.28 51.3128 93.712 51.3128 92C51.3128 90.24 50.9768 88.656 50.3048 87.248C49.6328 85.824 48.6808 84.696 47.4488 83.864C46.2168 83.032 44.7528 82.616 43.0568 82.616C41.3608 82.616 39.8088 83.04 38.4008 83.888C37.0088 84.72 35.8968 85.848 35.0648 87.272C34.2488 88.696 33.8408 90.272 33.8408 92C33.8408 93.744 34.2648 95.328 35.1128 96.752C35.9608 98.16 37.0808 99.28 38.4728 100.112C39.8808 100.944 41.4088 101.36 43.0568 101.36ZM75.6169 80H79.1689L66.0409 116H62.4649L66.8329 104L58.2169 80H61.8889L68.5129 99.368L75.6169 80ZM106.761 70.4H110.937L123.177 104H119.601L116.985 96.8H100.737L98.121 104H94.545L106.761 70.4ZM101.961 93.44H115.737L108.849 74.528L101.961 93.44ZM139.565 79.328C141.901 79.328 144.021 79.896 145.925 81.032C147.845 82.168 149.373 83.696 150.509 85.616C151.645 87.52 152.213 89.64 152.213 91.976C152.213 93.72 151.885 95.36 151.229 96.896C150.573 98.416 149.661 99.76 148.493 100.928C147.341 102.08 145.997 102.984 144.461 103.64C142.941 104.296 141.309 104.624 139.565 104.624C137.581 104.624 135.869 104.152 134.429 103.208C132.989 102.264 131.853 101.032 131.021 99.512V104H127.661V68H131.021V84.44C131.853 82.92 132.989 81.688 134.429 80.744C135.869 79.8 137.581 79.328 139.565 79.328ZM139.541 101.336C141.253 101.336 142.805 100.92 144.197 100.088C145.589 99.24 146.701 98.104 147.533 96.68C148.365 95.256 148.781 93.688 148.781 91.976C148.781 90.216 148.357 88.632 147.509 87.224C146.661 85.8 145.533 84.672 144.125 83.84C142.733 83.008 141.205 82.592 139.541 82.592C137.845 82.592 136.373 83.016 135.125 83.864C133.893 84.712 132.941 85.848 132.269 87.272C131.613 88.696 131.285 90.264 131.285 91.976C131.285 93.72 131.621 95.304 132.293 96.728C132.965 98.136 133.917 99.256 135.149 100.088C136.397 100.92 137.861 101.336 139.541 101.336ZM166.628 104.624C164.42 104.624 162.404 104.056 160.58 102.92C158.772 101.784 157.324 100.264 156.236 98.36C155.164 96.44 154.628 94.32 154.628 92C154.628 90.24 154.94 88.6 155.564 87.08C156.188 85.544 157.044 84.2 158.132 83.048C159.236 81.88 160.516 80.968 161.972 80.312C163.428 79.656 164.98 79.328 166.628 79.328C168.836 79.328 170.844 79.896 172.652 81.032C174.476 82.168 175.924 83.696 176.996 85.616C178.084 87.536 178.628 89.664 178.628 92C178.628 93.744 178.316 95.376 177.692 96.896C177.068 98.416 176.204 99.76 175.1 100.928C174.012 102.08 172.74 102.984 171.284 103.64C169.844 104.296 168.292 104.624 166.628 104.624ZM166.628 101.264C168.26 101.264 169.724 100.84 171.02 99.992C172.332 99.128 173.364 97.992 174.116 96.584C174.884 95.176 175.268 93.648 175.268 92C175.268 90.32 174.884 88.776 174.116 87.368C173.348 85.944 172.308 84.808 170.996 83.96C169.7 83.112 168.244 82.688 166.628 82.688C164.996 82.688 163.524 83.12 162.212 83.984C160.916 84.832 159.884 85.96 159.116 87.368C158.364 88.776 157.988 90.32 157.988 92C157.988 93.728 158.38 95.296 159.164 96.704C159.948 98.096 160.996 99.208 162.308 100.04C163.62 100.856 165.06 101.264 166.628 101.264ZM181.498 94.808V80H184.858V94.136C184.858 95.448 185.178 96.64 185.818 97.712C186.458 98.784 187.314 99.64 188.386 100.28C189.474 100.92 190.666 101.24 191.962 101.24C193.274 101.24 194.458 100.92 195.514 100.28C196.586 99.64 197.442 98.784 198.082 97.712C198.722 96.64 199.042 95.448 199.042 94.136V80H202.402L202.426 104H199.066L199.042 100.64C198.194 101.856 197.09 102.824 195.73 103.544C194.386 104.264 192.914 104.624 191.314 104.624C189.506 104.624 187.858 104.184 186.37 103.304C184.882 102.424 183.698 101.24 182.818 99.752C181.938 98.264 181.498 96.616 181.498 94.808ZM219.472 83.36H213.736L213.712 104H210.352L210.376 83.36H206.032V80H210.376L210.352 72.464H213.712L213.736 80H219.472V83.36ZM248.318 104.624C245.63 104.624 243.31 103.968 241.358 102.656C239.406 101.344 237.902 99.584 236.846 97.376C235.806 95.152 235.286 92.688 235.286 89.984V70.4H238.646V89.984C238.646 92.032 239.022 93.912 239.774 95.624C240.526 97.336 241.622 98.704 243.062 99.728C244.502 100.752 246.254 101.264 248.318 101.264C250.43 101.264 252.198 100.752 253.622 99.728C255.062 98.688 256.15 97.312 256.886 95.6C257.622 93.888 257.99 92.016 257.99 89.984V70.4H261.35V89.984C261.35 92.016 261.046 93.92 260.438 95.696C259.846 97.456 258.982 99.008 257.846 100.352C256.726 101.696 255.358 102.744 253.742 103.496C252.142 104.248 250.334 104.624 248.318 104.624ZM274.53 104.456C273.218 104.424 271.938 104.184 270.69 103.736C269.442 103.288 268.354 102.68 267.426 101.912C266.498 101.144 265.834 100.272 265.434 99.296L268.338 98.048C268.594 98.672 269.066 99.248 269.754 99.776C270.458 100.288 271.258 100.704 272.154 101.024C273.05 101.328 273.938 101.48 274.818 101.48C275.794 101.48 276.706 101.32 277.554 101C278.402 100.68 279.09 100.224 279.618 99.632C280.162 99.024 280.434 98.312 280.434 97.496C280.434 96.616 280.146 95.928 279.57 95.432C278.994 94.92 278.266 94.52 277.386 94.232C276.506 93.928 275.602 93.64 274.674 93.368C272.978 92.904 271.482 92.392 270.186 91.832C268.89 91.272 267.874 90.56 267.138 89.696C266.418 88.816 266.058 87.688 266.058 86.312C266.058 84.856 266.466 83.6 267.282 82.544C268.114 81.472 269.194 80.648 270.522 80.072C271.866 79.48 273.298 79.184 274.818 79.184C276.77 79.184 278.546 79.608 280.146 80.456C281.762 81.304 282.93 82.432 283.65 83.84L280.938 85.448C280.65 84.792 280.194 84.224 279.57 83.744C278.946 83.264 278.234 82.888 277.434 82.616C276.65 82.344 275.85 82.2 275.034 82.184C274.01 82.168 273.058 82.32 272.178 82.64C271.298 82.944 270.586 83.4 270.042 84.008C269.514 84.616 269.25 85.36 269.25 86.24C269.25 87.12 269.514 87.792 270.042 88.256C270.57 88.704 271.282 89.072 272.178 89.36C273.09 89.632 274.114 89.952 275.25 90.32C276.706 90.784 278.074 91.312 279.354 91.904C280.634 92.496 281.666 93.232 282.45 94.112C283.234 94.992 283.618 96.104 283.602 97.448C283.602 98.888 283.17 100.144 282.306 101.216C281.442 102.288 280.322 103.112 278.946 103.688C277.57 104.248 276.098 104.504 274.53 104.456Z" fill="#101828"/>
<path d="M1056 44.6665L1042.67 57.9998M1042.67 57.9998L1056 71.3332M1042.67 57.9998H1069.33M1089.33 57.9998C1089.33 76.4093 1074.41 91.3332 1056 91.3332C1037.59 91.3332 1022.67 76.4093 1022.67 57.9998C1022.67 39.5903 1037.59 24.6665 1056 24.6665C1074.41 24.6665 1089.33 39.5903 1089.33 57.9998Z" stroke="#4C4D58" stroke-width="4" stroke-linecap="round" stroke-linejoin="round"/>
<path d="M1176 71.3332L1189.33 57.9998M1189.33 57.9998L1176 44.6665M1189.33 57.9998H1162.67M1209.33 57.9998C1209.33 76.4093 1194.41 91.3332 1176 91.3332C1157.59 91.3332 1142.67 76.4093 1142.67 57.9998C1142.67 39.5903 1157.59 24.6665 1176 24.6665C1194.41 24.6665 1209.33 39.5903 1209.33 57.9998Z" stroke="#4C4D58" stroke-width="4" stroke-linecap="round" stroke-linejoin="round"/>
</svg>
