<svg width="92" height="69" viewBox="0 0 92 69" fill="none" xmlns="http://www.w3.org/2000/svg">
<path d="M91.08 -1.43051e-05L71.88 41.76L70.2 30.48C73.88 30.48 77.16 31.36 80.04 33.12C82.92 34.88 85.24 37.2 87 40.08C88.76 42.8 89.64 45.92 89.64 49.44C89.64 52.96 88.76 56.16 87 59.04C85.24 61.92 82.92 64.24 80.04 66C77.16 67.6 73.88 68.4 70.2 68.4C66.68 68.4 63.4 67.6 60.36 66C57.48 64.24 55.16 61.84 53.4 58.8C51.64 55.76 50.76 52.4 50.76 48.72C50.76 45.04 51.48 41.2 52.92 37.2C54.52 33.2 57.32 28 61.32 21.6L74.28 -1.43051e-05H91.08ZM40.92 -1.43051e-05L21.72 41.76L20.04 30.48C23.72 30.48 27 31.36 29.88 33.12C32.76 34.88 35.08 37.2 36.84 40.08C38.6 42.8 39.48 45.92 39.48 49.44C39.48 52.96 38.6 56.16 36.84 59.04C35.08 61.92 32.76 64.24 29.88 66C27 67.6 23.72 68.4 20.04 68.4C16.52 68.4 13.24 67.6 10.2 66C7.32 64.24 5 61.84 3.24 58.8C1.48 55.76 0.600001 52.4 0.600001 48.72C0.600001 45.04 1.32 41.2 2.76 37.2C4.36 33.2 7.16 28 11.16 21.6L24.12 -1.43051e-05H40.92Z" fill="#F7F7F8"/>
</svg>
